<svg clip-rule="evenodd" fill-rule="evenodd" stroke-linejoin="round" stroke-miterlimit="2" viewBox="0 0 400 534" xmlns="http://www.w3.org/2000/svg"><g transform="scale(1.3333344)"><g fill-rule="nonzero"><g fill="#fff"><path d="m0-44.862v44.863l38.853 22.431 38.852-22.431v-44.863l-38.852-22.432z" transform="translate(11.147 72.4322)"/><path d="m1.808-5.574h19.625l.988 9.514h-26.106z" transform="matrix(.866005 .500036 .500036 -.866005 151.221 10.3934)"/><path d="m0-12.142 29.337 16.938v6.19l9.514-3.091v-8.592l-5.158-2.977-33.693-19.454z" transform="translate(250 28.2664)"/><path d="m0-34.577 29.337 16.938v25.533l3.67 1.193 5.844 1.899v-34.118l-38.851-22.431z" transform="translate(50 150.701)"/><path d="m0-54.256 29.337 16.938v33.877l-11.582 6.688 5.623 7.739 15.473-8.933v-44.864l-5.158-2.977-33.693-19.454z" transform="translate(150 170.38)"/><path d="m0-67.753 29.337 16.938v33.877l-29.337 16.939v10.985l38.851-22.43v-44.864l-5.158-2.977-33.693-19.454z" transform="translate(250 183.877)"/><path d="m0-67.755 29.337 16.939v33.877l-29.338 16.939-18.244-10.533-5.781 7.647 24.025 13.871 38.852-22.431v-44.864l-30.307-17.498-8.544-4.932z" transform="translate(50 283.878)"/></g><path d="m0-2.071 6.376 2.071z" fill="#ba1e46" transform="translate(214.284 240.466)"/><path d="m0-1.02 3.138 1.02z" fill="#ba1e46" transform="translate(211.146 238.396)"/><path d="m0-67.753 29.337 16.938v33.877l-29.338 16.94-29.339-16.94v-33.877l12-6.927-5.623-7.74-15.89 9.174v44.864l38.853 22.43 38.851-22.43v-44.864l-38.851-22.431z" fill="#fff" transform="translate(50 383.876)"/><path d="m0 33.878-29.338 16.939-29.339-16.939v-33.877l29.339-16.938 29.338 16.938zm-68.19-39.37v44.863l38.853 22.431 38.852-22.431v-44.863l-38.852-22.432z" fill="#fff" transform="translate(179.337 333.06)"/><path d="m0-67.755 29.337 16.939v33.877l-29.338 16.939-29.339-16.939v-7.406l-9.444 3.069-.069.022v9.809l38.852 22.43 38.852-22.431v-44.863l-38.851-22.431z" fill="#fff" transform="translate(150 283.878)"/><path d="m0 400.08h300v-400.08h-300zm207.148-325.337v-49.482l42.852-24.742 42.852 24.742v49.482l-42.852 24.741zm-100.001 0v-49.482l42.853-24.742 42.852 24.742v49.482l-42.852 24.741zm-100 0v-49.482l42.853-24.742 42.852 24.742v49.482l-42.852 24.741zm200.001 100v-49.482l42.852-24.742 42.852 24.742v49.482l-42.852 24.74zm-100.001 0v-49.482l42.853-24.742 42.852 24.742v49.482l-42.852 24.74zm-100 0v-49.482l42.853-24.742 42.852 24.742v49.482l-42.852 24.74zm200.001 99.998v-49.481l42.852-24.741 42.852 24.741v49.481l-42.852 24.741zm-100.001 0v-49.481l42.853-24.741 42.852 24.741v49.481l-42.852 24.741zm-100 0v-49.481l42.853-24.741 42.852 24.741v49.481l-42.852 24.741zm200.001 99.999v-49.481l42.852-24.742 42.852 24.742v49.481l-42.852 24.742zm-100.001 0v-49.481l42.853-24.742 42.852 24.742v49.481l-42.852 24.742zm-100 0v-49.481l42.853-24.742 42.852 24.742v49.481l-42.852 24.742z" fill="#fff"/><path d="m0-67.755 29.337 16.939v33.877l-29.338 16.939-29.339-16.939v-26.472l-6.376-2.072-3.137-1.019v35.057l29.833 17.223 9.019 5.207 38.852-22.431v-44.863l-38.851-22.431z" fill="#fff" transform="translate(250 283.878)"/></g><g fill="#fff"><path d="m-116.85-25.793h116.85v1692.79h-116.85z" transform="matrix(.24 0 0 .236343 323.296 5.49802)"/><path d="m-116.85-25.793h116.85v1692.79h-116.85z" transform="matrix(.24 0 0 .236343 3.307 6.615)"/></g></g></svg>